<svg width="177" height="36" viewBox="0 0 177 36" fill="none" xmlns="http://www.w3.org/2000/svg">
<g clip-path="url(#clip0_17_35)">
<path d="M18 36C27.9411 36 36 27.9411 36 18C36 8.05887 27.9411 0 18 0C8.05887 0 0 8.05887 0 18C0 27.9411 8.05887 36 18 36Z" fill="#181A1D"/>
<path d="M24.0199 19.2982L20.3242 13.9342L23.9314 8.9136H19.6772L18.0425 11.2932L16.4527 8.9136H12.019L15.6427 14.0926L10.2733 21.7213H10.3093L6.61356 27.0853H11.1337L12.8174 24.5167H23.1808L24.8645 27.0853H29.3854L24.0199 19.2982ZM20.5171 20.8339H15.1834L17.9136 16.7515L20.5895 20.8339H20.5171Z" fill="white"/>
</g>
<path d="M54.05 18.792L58.138 24H54.092L52.076 21.256L50.046 24H46L50.088 18.792L46.14 13.836H50.186L52.076 16.356L53.952 13.836H57.998L54.05 18.792ZM67.7124 24C67.535 23.468 67.297 22.8007 66.9984 21.998H62.5324L61.8324 24H58.3184L62.2384 13.836H67.3904L71.3384 24H67.7124ZM66.2004 19.814C65.8457 18.834 65.4817 17.854 65.1084 16.874L64.7724 15.964C64.4457 16.8133 63.965 18.0967 63.3304 19.814H66.2004ZM78.2454 24.14C76.1361 24.14 74.5821 23.692 73.5834 22.796C72.5847 21.9 72.0854 20.6213 72.0854 18.96C72.0854 17.2893 72.5847 15.9687 73.5834 14.998C74.5821 14.0273 76.1361 13.542 78.2454 13.542C81.1947 13.542 83.1687 14.5547 84.1674 16.58C83.3274 16.8693 82.3427 17.3033 81.2134 17.882C80.9427 17.3593 80.5134 16.972 79.9254 16.72C79.3467 16.468 78.7541 16.342 78.1474 16.342C77.2514 16.342 76.5841 16.58 76.1454 17.056C75.7067 17.5227 75.4874 18.1013 75.4874 18.792C75.4874 19.5387 75.7207 20.15 76.1874 20.626C76.6634 21.0927 77.3867 21.326 78.3574 21.326C79.1321 21.326 79.7481 21.2 80.2054 20.948C80.6627 20.6867 80.9987 20.276 81.2134 19.716C81.9787 20.1267 82.9587 20.5887 84.1534 21.102C83.6867 22.2313 82.9074 23.02 81.8154 23.468C80.7234 23.916 79.5334 24.14 78.2454 24.14ZM94.1264 24C93.9491 23.468 93.7111 22.8007 93.4124 21.998H88.9464L88.2464 24H84.7324L88.6524 13.836H93.8044L97.7524 24H94.1264ZM92.6144 19.814C92.2598 18.834 91.8958 17.854 91.5224 16.874L91.1864 15.964C90.8598 16.8133 90.3791 18.0967 89.7444 19.814H92.6144ZM110.231 13.836C110.166 15.4133 110.133 17.1073 110.133 18.918C110.133 20.7287 110.166 22.4227 110.231 24H106.941V20.192H101.789V24H98.4995C98.5741 22.1893 98.6115 20.4953 98.6115 18.918C98.6115 17.3407 98.5741 15.6467 98.4995 13.836H101.789V17.644H106.941V13.836H110.231ZM117.581 24.14C115.444 24.14 113.871 23.678 112.863 22.754C111.855 21.8207 111.351 20.514 111.351 18.834C111.351 17.1727 111.85 15.8753 112.849 14.942C113.857 14.0087 115.434 13.542 117.581 13.542C119.737 13.542 121.314 14.0087 122.313 14.942C123.321 15.8753 123.825 17.1727 123.825 18.834C123.825 20.5233 123.326 21.83 122.327 22.754C121.328 23.678 119.746 24.14 117.581 24.14ZM117.581 21.284C118.617 21.284 119.364 21.088 119.821 20.696C120.278 20.2947 120.507 19.674 120.507 18.834C120.507 18.0127 120.278 17.4013 119.821 17C119.364 16.5987 118.617 16.398 117.581 16.398C116.554 16.398 115.812 16.5987 115.355 17C114.898 17.4013 114.669 18.0127 114.669 18.834C114.669 19.6647 114.898 20.2807 115.355 20.682C115.812 21.0833 116.554 21.284 117.581 21.284ZM133.145 18.946C135.273 18.946 136.337 19.6227 136.337 20.976C136.337 21.6107 136.192 22.152 135.903 22.6C135.614 23.0387 135.096 23.384 134.349 23.636C133.602 23.8787 132.566 24 131.241 24H124.941C125.016 22.1893 125.053 20.4953 125.053 18.918C125.053 17.3407 125.016 15.6467 124.941 13.836H128.231V13.85H131.213C132.37 13.85 133.28 13.948 133.943 14.144C134.615 14.3307 135.086 14.606 135.357 14.97C135.637 15.334 135.777 15.796 135.777 16.356C135.777 16.9253 135.576 17.434 135.175 17.882C134.783 18.3207 134.106 18.6753 133.145 18.946ZM128.231 16.398V17.7H130.919C131.498 17.7 131.899 17.6487 132.123 17.546C132.356 17.4433 132.473 17.2567 132.473 16.986C132.473 16.7713 132.352 16.622 132.109 16.538C131.876 16.4447 131.479 16.398 130.919 16.398H128.231ZM130.919 21.438C131.404 21.438 131.773 21.4193 132.025 21.382C132.286 21.3353 132.473 21.2607 132.585 21.158C132.697 21.046 132.753 20.8967 132.753 20.71C132.753 20.4673 132.618 20.2947 132.347 20.192C132.086 20.08 131.61 20.024 130.919 20.024H128.231V21.438H130.919ZM149.087 24C148.91 23.468 148.672 22.8007 148.373 21.998H143.907L143.207 24H139.693L143.613 13.836H148.765L152.713 24H149.087ZM147.575 19.814C147.221 18.834 146.857 17.854 146.483 16.874L146.147 15.964C145.821 16.8133 145.34 18.0967 144.705 19.814H147.575ZM154.804 24.14C154.394 24.14 154.044 23.9953 153.754 23.706C153.465 23.4073 153.32 23.0527 153.32 22.642C153.32 22.2313 153.465 21.8813 153.754 21.592C154.044 21.3027 154.394 21.158 154.804 21.158C155.206 21.158 155.551 21.3073 155.84 21.606C156.139 21.8953 156.288 22.2407 156.288 22.642C156.288 23.0527 156.139 23.4073 155.84 23.706C155.551 23.9953 155.206 24.14 154.804 24.14ZM168.912 24C168.734 23.468 168.496 22.8007 168.198 21.998H163.732L163.032 24H159.518L163.438 13.836H168.59L172.538 24H168.912ZM167.4 19.814C167.045 18.834 166.681 17.854 166.308 16.874L165.972 15.964C165.645 16.8133 165.164 18.0967 164.53 19.814H167.4ZM174.629 24.14C174.218 24.14 173.868 23.9953 173.579 23.706C173.289 23.4073 173.145 23.0527 173.145 22.642C173.145 22.2313 173.289 21.8813 173.579 21.592C173.868 21.3027 174.218 21.158 174.629 21.158C175.03 21.158 175.375 21.3073 175.665 21.606C175.963 21.8953 176.113 22.2407 176.113 22.642C176.113 23.0527 175.963 23.4073 175.665 23.706C175.375 23.9953 175.03 24.14 174.629 24.14Z" fill="#181A1D"/>
<defs>
<clipPath id="clip0_17_35">
<rect width="36" height="36" fill="white"/>
</clipPath>
</defs>
</svg>
